<svg width="20" height="20" viewBox="0 0 20 20" fill="none" xmlns="http://www.w3.org/2000/svg">
<path fill-rule="evenodd" clip-rule="evenodd" d="M3.00448 3.73366C3.87409 2.86405 5.04447 2.5 6.24999 2.5C8.00269 2.5 9.23557 3.43556 9.99993 4.72217C10.7596 3.43711 11.9845 2.5 13.75 2.5C14.9555 2.5 16.1259 2.86405 16.9955 3.73366C17.868 4.60613 18.3333 5.8829 18.3333 7.5C18.3333 9.8119 16.9347 11.9618 15.3411 13.636C13.7268 15.3319 11.7759 16.7775 10.3839 17.5H9.61612C8.22404 16.7775 6.27316 15.3319 4.65889 13.636C3.06526 11.9618 1.66666 9.8119 1.66666 7.5C1.66666 5.8829 2.13201 4.60613 3.00448 3.73366ZM4.183 4.91217C3.7013 5.39387 3.33332 6.20043 3.33332 7.5C3.33332 9.1631 4.36805 10.9132 5.86609 12.4869C7.19734 13.8854 8.78982 15.1485 9.99999 15.8333C11.2102 15.1485 12.8026 13.8854 14.1339 12.4869C15.6319 10.9132 16.6667 9.1631 16.6667 7.5C16.6667 6.20043 16.2987 5.39387 15.817 4.91217C15.3324 4.42762 14.6278 4.16667 13.75 4.16667C12.231 4.16667 11.25 5.41667 10.8333 7.08333L9.1984 7.08019C8.74999 5.41667 7.75601 4.16667 6.24999 4.16667C5.37217 4.16667 4.66755 4.42762 4.183 4.91217Z" fill="#08091C"/>
</svg>
